<?xml version="1.0" encoding="us-ascii" standalone="no"?><svg xmlns="http://www.w3.org/2000/svg" xmlns:xlink="http://www.w3.org/1999/xlink" contentStyleType="text/css" height="952px" preserveAspectRatio="none" style="width:2283px;height:952px;background:#FFFFFF;" version="1.1" viewBox="0 0 2283 952" width="2283px" zoomAndPan="magnify"><defs/><g><!--cluster org.junit.jupiter--><g id="cluster_org.junit.jupiter"><path d="M1306.5,158.102 L1417.5,158.102 A3.75,3.75 0 0 1 1420,160.602 L1427,183.1699 L2035.5,183.1699 A2.5,2.5 0 0 1 2038,185.6699 L2038,537.102 A2.5,2.5 0 0 1 2035.5,539.602 L1306.5,539.602 A2.5,2.5 0 0 1 1304,537.102 L1304,160.602 A2.5,2.5 0 0 1 1306.5,158.102 " fill="none" style="stroke:#000000;stroke-width:1.5;"/><line style="stroke:#000000;stroke-width:1.5;" x1="1304" x2="1427" y1="183.1699" y2="183.1699"/><text fill="#000000" font-family="sans-serif" font-size="14" font-weight="bold" lengthAdjust="spacing" textLength="110" x="1308" y="175.0679">org.junit.jupiter</text></g><!--cluster org.junit.vintage--><g id="cluster_org.junit.vintage"><path d="M1022.5,327.602 L1139.5,327.602 A3.75,3.75 0 0 1 1142,330.102 L1149,352.6699 L1227.5,352.6699 A2.5,2.5 0 0 1 1230,355.1699 L1230,428.102 A2.5,2.5 0 0 1 1227.5,430.602 L1022.5,430.602 A2.5,2.5 0 0 1 1020,428.102 L1020,330.102 A2.5,2.5 0 0 1 1022.5,327.602 " fill="none" style="stroke:#000000;stroke-width:1.5;"/><line style="stroke:#000000;stroke-width:1.5;" x1="1020" x2="1149" y1="352.6699" y2="352.6699"/><text fill="#000000" font-family="sans-serif" font-size="14" font-weight="bold" lengthAdjust="spacing" textLength="116" x="1024" y="344.5679">org.junit.vintage</text></g><!--cluster org.junit.platform--><g id="cluster_org.junit.platform"><path d="M8.5,6.602 L134.5,6.602 A3.75,3.75 0 0 1 137,9.102 L144,31.6699 L993.5,31.6699 A2.5,2.5 0 0 1 996,34.1699 L996,773.102 A2.5,2.5 0 0 1 993.5,775.602 L8.5,775.602 A2.5,2.5 0 0 1 6,773.102 L6,9.102 A2.5,2.5 0 0 1 8.5,6.602 " fill="none" style="stroke:#000000;stroke-width:1.5;"/><line style="stroke:#000000;stroke-width:1.5;" x1="6" x2="144" y1="31.6699" y2="31.6699"/><text fill="#000000" font-family="sans-serif" font-size="14" font-weight="bold" lengthAdjust="spacing" textLength="125" x="10" y="23.5679">org.junit.platform</text></g><!--cluster JUnit 4--><g id="cluster_JUnit 4"><path d="M1200.5,563.602 L1248.5,563.602 A3.75,3.75 0 0 1 1251,566.102 L1258,588.6699 L1333.5,588.6699 A2.5,2.5 0 0 1 1336,591.1699 L1336,664.102 A2.5,2.5 0 0 1 1333.5,666.602 L1200.5,666.602 A2.5,2.5 0 0 1 1198,664.102 L1198,566.102 A2.5,2.5 0 0 1 1200.5,563.602 " fill="none" style="stroke:#000000;stroke-width:1.5;"/><line style="stroke:#000000;stroke-width:1.5;" x1="1198" x2="1258" y1="588.6699" y2="588.6699"/><text fill="#000000" font-family="sans-serif" font-size="14" font-weight="bold" lengthAdjust="spacing" textLength="47" x="1202" y="580.5679">JUnit 4</text></g><!--cluster org.opentest4j--><g id="cluster_org.opentest4j"><path d="M654.5,842.602 L757.5,842.602 A3.75,3.75 0 0 1 760,845.102 L767,867.6699 L791.5,867.6699 A2.5,2.5 0 0 1 794,870.1699 L794,943.102 A2.5,2.5 0 0 1 791.5,945.602 L654.5,945.602 A2.5,2.5 0 0 1 652,943.102 L652,845.102 A2.5,2.5 0 0 1 654.5,842.602 " fill="none" style="stroke:#000000;stroke-width:1.5;"/><line style="stroke:#000000;stroke-width:1.5;" x1="652" x2="767" y1="867.6699" y2="867.6699"/><text fill="#000000" font-family="sans-serif" font-size="14" font-weight="bold" lengthAdjust="spacing" textLength="102" x="656" y="859.5679">org.opentest4j</text></g><!--cluster org.apiguardian--><g id="cluster_org.apiguardian"><path d="M2064.5,6.602 L2176.5,6.602 A3.75,3.75 0 0 1 2179,9.102 L2186,31.6699 L2273.5,31.6699 A2.5,2.5 0 0 1 2276,34.1699 L2276,301.102 A2.5,2.5 0 0 1 2273.5,303.602 L2064.5,303.602 A2.5,2.5 0 0 1 2062,301.102 L2062,9.102 A2.5,2.5 0 0 1 2064.5,6.602 " fill="none" style="stroke:#000000;stroke-width:1.5;"/><line style="stroke:#000000;stroke-width:1.5;" x1="2062" x2="2186" y1="31.6699" y2="31.6699"/><text fill="#000000" font-family="sans-serif" font-size="14" font-weight="bold" lengthAdjust="spacing" textLength="111" x="2066" y="23.5679">org.apiguardian</text></g><!--entity jupiter--><g id="elem_jupiter"><rect fill="#F1F1F1" height="49.0679" rx="2.5" ry="2.5" style="stroke:#181818;stroke-width:0.5;" width="121" x="1836.5" y="196.102"/><rect fill="#F1F1F1" height="10" style="stroke:#181818;stroke-width:0.5;" width="15" x="1937.5" y="201.102"/><rect fill="#F1F1F1" height="2" style="stroke:#181818;stroke-width:0.5;" width="4" x="1935.5" y="203.102"/><rect fill="#F1F1F1" height="2" style="stroke:#181818;stroke-width:0.5;" width="4" x="1935.5" y="207.102"/><text fill="#000000" font-family="sans-serif" font-size="14" lengthAdjust="spacing" textLength="81" x="1851.5" y="231.0679">junit-jupiter</text></g><!--entity jupiter_api--><g id="elem_jupiter_api"><rect fill="#F1F1F1" height="49.0679" rx="2.5" ry="2.5" style="stroke:#181818;stroke-width:0.5;" width="147" x="1562.5" y="474.602"/><rect fill="#F1F1F1" height="10" style="stroke:#181818;stroke-width:0.5;" width="15" x="1689.5" y="479.602"/><rect fill="#F1F1F1" height="2" style="stroke:#181818;stroke-width:0.5;" width="4" x="1687.5" y="481.602"/><rect fill="#F1F1F1" height="2" style="stroke:#181818;stroke-width:0.5;" width="4" x="1687.5" y="485.602"/><text fill="#000000" font-family="sans-serif" font-size="14" lengthAdjust="spacing" textLength="107" x="1577.5" y="509.5679">junit-jupiter-api</text></g><!--entity jupiter_engine--><g id="elem_jupiter_engine"><rect fill="#F1F1F1" height="49.0679" rx="2.5" ry="2.5" style="stroke:#181818;stroke-width:0.5;" width="173" x="1320.5" y="365.602"/><rect fill="#F1F1F1" height="10" style="stroke:#181818;stroke-width:0.5;" width="15" x="1473.5" y="370.602"/><rect fill="#F1F1F1" height="2" style="stroke:#181818;stroke-width:0.5;" width="4" x="1471.5" y="372.602"/><rect fill="#F1F1F1" height="2" style="stroke:#181818;stroke-width:0.5;" width="4" x="1471.5" y="376.602"/><text fill="#000000" font-family="sans-serif" font-size="14" lengthAdjust="spacing" textLength="133" x="1335.5" y="400.5679">junit-jupiter-engine</text></g><!--entity jupiter_params--><g id="elem_jupiter_params"><rect fill="#F1F1F1" height="49.0679" rx="2.5" ry="2.5" style="stroke:#181818;stroke-width:0.5;" width="177" x="1808.5" y="365.602"/><rect fill="#F1F1F1" height="10" style="stroke:#181818;stroke-width:0.5;" width="15" x="1965.5" y="370.602"/><rect fill="#F1F1F1" height="2" style="stroke:#181818;stroke-width:0.5;" width="4" x="1963.5" y="372.602"/><rect fill="#F1F1F1" height="2" style="stroke:#181818;stroke-width:0.5;" width="4" x="1963.5" y="376.602"/><text fill="#000000" font-family="sans-serif" font-size="14" lengthAdjust="spacing" textLength="137" x="1823.5" y="400.5679">junit-jupiter-params</text></g><!--entity jupiter_migration_support--><g id="elem_jupiter_migration_support"><rect fill="#F1F1F1" height="49.0679" rx="2.5" ry="2.5" style="stroke:#181818;stroke-width:0.5;" width="245" x="1528.5" y="365.602"/><rect fill="#F1F1F1" height="10" style="stroke:#181818;stroke-width:0.5;" width="15" x="1753.5" y="370.602"/><rect fill="#F1F1F1" height="2" style="stroke:#181818;stroke-width:0.5;" width="4" x="1751.5" y="372.602"/><rect fill="#F1F1F1" height="2" style="stroke:#181818;stroke-width:0.5;" width="4" x="1751.5" y="376.602"/><text fill="#000000" font-family="sans-serif" font-size="14" lengthAdjust="spacing" textLength="205" x="1543.5" y="400.5679">junit-jupiter-migrationsupport</text></g><!--entity vintage_engine--><g id="elem_vintage_engine"><rect fill="#F1F1F1" height="49.0679" rx="2.5" ry="2.5" style="stroke:#181818;stroke-width:0.5;" width="178" x="1036" y="365.602"/><rect fill="#F1F1F1" height="10" style="stroke:#181818;stroke-width:0.5;" width="15" x="1194" y="370.602"/><rect fill="#F1F1F1" height="2" style="stroke:#181818;stroke-width:0.5;" width="4" x="1192" y="372.602"/><rect fill="#F1F1F1" height="2" style="stroke:#181818;stroke-width:0.5;" width="4" x="1192" y="376.602"/><text fill="#000000" font-family="sans-serif" font-size="14" lengthAdjust="spacing" textLength="138" x="1051" y="400.5679">junit-vintage-engine</text></g><!--entity commons--><g id="elem_commons"><rect fill="#F1F1F1" height="49.0679" rx="2.5" ry="2.5" style="stroke:#181818;stroke-width:0.5;" width="204" x="776" y="710.602"/><rect fill="#F1F1F1" height="10" style="stroke:#181818;stroke-width:0.5;" width="15" x="960" y="715.602"/><rect fill="#F1F1F1" height="2" style="stroke:#181818;stroke-width:0.5;" width="4" x="958" y="717.602"/><rect fill="#F1F1F1" height="2" style="stroke:#181818;stroke-width:0.5;" width="4" x="958" y="721.602"/><text fill="#000000" font-family="sans-serif" font-size="14" lengthAdjust="spacing" textLength="164" x="791" y="745.5679">junit-platform-commons</text></g><!--entity console--><g id="elem_console"><rect fill="#F1F1F1" height="49.0679" rx="2.5" ry="2.5" style="stroke:#181818;stroke-width:0.5;" width="190" x="777" y="196.102"/><rect fill="#F1F1F1" height="10" style="stroke:#181818;stroke-width:0.5;" width="15" x="947" y="201.102"/><rect fill="#F1F1F1" height="2" style="stroke:#181818;stroke-width:0.5;" width="4" x="945" y="203.102"/><rect fill="#F1F1F1" height="2" style="stroke:#181818;stroke-width:0.5;" width="4" x="945" y="207.102"/><text fill="#000000" font-family="sans-serif" font-size="14" lengthAdjust="spacing" textLength="150" x="792" y="231.0679">junit-platform-console</text></g><!--entity engine--><g id="elem_engine"><rect fill="#F1F1F1" height="49.0679" rx="2.5" ry="2.5" style="stroke:#181818;stroke-width:0.5;" width="186" x="785" y="601.602"/><rect fill="#F1F1F1" height="10" style="stroke:#181818;stroke-width:0.5;" width="15" x="951" y="606.602"/><rect fill="#F1F1F1" height="2" style="stroke:#181818;stroke-width:0.5;" width="4" x="949" y="608.602"/><rect fill="#F1F1F1" height="2" style="stroke:#181818;stroke-width:0.5;" width="4" x="949" y="612.602"/><text fill="#000000" font-family="sans-serif" font-size="14" lengthAdjust="spacing" textLength="146" x="800" y="636.5679">junit-platform-engine</text></g><!--entity jfr--><g id="elem_jfr"><rect fill="#F1F1F1" height="49.0679" rx="2.5" ry="2.5" style="stroke:#181818;stroke-width:0.5;" width="154" x="551" y="365.602"/><rect fill="#F1F1F1" height="10" style="stroke:#181818;stroke-width:0.5;" width="15" x="685" y="370.602"/><rect fill="#F1F1F1" height="2" style="stroke:#181818;stroke-width:0.5;" width="4" x="683" y="372.602"/><rect fill="#F1F1F1" height="2" style="stroke:#181818;stroke-width:0.5;" width="4" x="683" y="376.602"/><text fill="#000000" font-family="sans-serif" font-size="14" lengthAdjust="spacing" textLength="114" x="566" y="400.5679">junit-platform-jfr</text></g><!--entity launcher--><g id="elem_launcher"><rect fill="#F1F1F1" height="49.0679" rx="2.5" ry="2.5" style="stroke:#181818;stroke-width:0.5;" width="199" x="585.5" y="474.602"/><rect fill="#F1F1F1" height="10" style="stroke:#181818;stroke-width:0.5;" width="15" x="764.5" y="479.602"/><rect fill="#F1F1F1" height="2" style="stroke:#181818;stroke-width:0.5;" width="4" x="762.5" y="481.602"/><rect fill="#F1F1F1" height="2" style="stroke:#181818;stroke-width:0.5;" width="4" x="762.5" y="485.602"/><text fill="#000000" font-family="sans-serif" font-size="14" lengthAdjust="spacing" textLength="159" x="600.5" y="509.5679">junit-platform-launcher</text></g><!--entity reporting--><g id="elem_reporting"><rect fill="#F1F1F1" height="49.0679" rx="2.5" ry="2.5" style="stroke:#181818;stroke-width:0.5;" width="203" x="777.5" y="365.602"/><rect fill="#F1F1F1" height="10" style="stroke:#181818;stroke-width:0.5;" width="15" x="960.5" y="370.602"/><rect fill="#F1F1F1" height="2" style="stroke:#181818;stroke-width:0.5;" width="4" x="958.5" y="372.602"/><rect fill="#F1F1F1" height="2" style="stroke:#181818;stroke-width:0.5;" width="4" x="958.5" y="376.602"/><text fill="#000000" font-family="sans-serif" font-size="14" lengthAdjust="spacing" textLength="163" x="792.5" y="400.5679">junit-platform-reporting</text></g><!--entity runner--><g id="elem_runner"><rect fill="#F1F1F1" height="49.0679" rx="2.5" ry="2.5" style="stroke:#181818;stroke-width:0.5;" width="186" x="550" y="196.102"/><rect fill="#F1F1F1" height="10" style="stroke:#181818;stroke-width:0.5;" width="15" x="716" y="201.102"/><rect fill="#F1F1F1" height="2" style="stroke:#181818;stroke-width:0.5;" width="4" x="714" y="203.102"/><rect fill="#F1F1F1" height="2" style="stroke:#181818;stroke-width:0.5;" width="4" x="714" y="207.102"/><text fill="#000000" font-family="sans-serif" font-size="14" lengthAdjust="spacing" textLength="146" x="565" y="231.0679">junit-platform-runner</text></g><!--entity suite--><g id="elem_suite"><rect fill="#F1F1F1" height="49.0679" rx="2.5" ry="2.5" style="stroke:#181818;stroke-width:0.5;" width="172" x="226" y="44.602"/><rect fill="#F1F1F1" height="10" style="stroke:#181818;stroke-width:0.5;" width="15" x="378" y="49.602"/><rect fill="#F1F1F1" height="2" style="stroke:#181818;stroke-width:0.5;" width="4" x="376" y="51.602"/><rect fill="#F1F1F1" height="2" style="stroke:#181818;stroke-width:0.5;" width="4" x="376" y="55.602"/><text fill="#000000" font-family="sans-serif" font-size="14" lengthAdjust="spacing" textLength="132" x="241" y="79.5679">junit-platform-suite</text></g><!--entity suite_api--><g id="elem_suite_api"><rect fill="#F1F1F1" height="49.0679" rx="2.5" ry="2.5" style="stroke:#181818;stroke-width:0.5;" width="198" x="263" y="474.602"/><rect fill="#F1F1F1" height="10" style="stroke:#181818;stroke-width:0.5;" width="15" x="441" y="479.602"/><rect fill="#F1F1F1" height="2" style="stroke:#181818;stroke-width:0.5;" width="4" x="439" y="481.602"/><rect fill="#F1F1F1" height="2" style="stroke:#181818;stroke-width:0.5;" width="4" x="439" y="485.602"/><text fill="#000000" font-family="sans-serif" font-size="14" lengthAdjust="spacing" textLength="158" x="278" y="509.5679">junit-platform-suite-api</text></g><!--entity suite_commons--><g id="elem_suite_commons"><rect fill="#F1F1F1" height="49.0679" rx="2.5" ry="2.5" style="stroke:#181818;stroke-width:0.5;" width="242" x="274" y="365.602"/><rect fill="#F1F1F1" height="10" style="stroke:#181818;stroke-width:0.5;" width="15" x="496" y="370.602"/><rect fill="#F1F1F1" height="2" style="stroke:#181818;stroke-width:0.5;" width="4" x="494" y="372.602"/><rect fill="#F1F1F1" height="2" style="stroke:#181818;stroke-width:0.5;" width="4" x="494" y="376.602"/><text fill="#000000" font-family="sans-serif" font-size="14" lengthAdjust="spacing" textLength="202" x="289" y="400.5679">junit-platform-suite-commons</text></g><!--entity suite_engine--><g id="elem_suite_engine"><rect fill="#F1F1F1" height="49.0679" rx="2.5" ry="2.5" style="stroke:#181818;stroke-width:0.5;" width="224" x="278" y="196.102"/><rect fill="#F1F1F1" height="10" style="stroke:#181818;stroke-width:0.5;" width="15" x="482" y="201.102"/><rect fill="#F1F1F1" height="2" style="stroke:#181818;stroke-width:0.5;" width="4" x="480" y="203.102"/><rect fill="#F1F1F1" height="2" style="stroke:#181818;stroke-width:0.5;" width="4" x="480" y="207.102"/><text fill="#000000" font-family="sans-serif" font-size="14" lengthAdjust="spacing" textLength="184" x="293" y="231.0679">junit-platform-suite-engine</text></g><!--entity testkit--><g id="elem_testkit"><rect fill="#F1F1F1" height="49.0679" rx="2.5" ry="2.5" style="stroke:#181818;stroke-width:0.5;" width="180" x="22" y="365.602"/><rect fill="#F1F1F1" height="10" style="stroke:#181818;stroke-width:0.5;" width="15" x="182" y="370.602"/><rect fill="#F1F1F1" height="2" style="stroke:#181818;stroke-width:0.5;" width="4" x="180" y="372.602"/><rect fill="#F1F1F1" height="2" style="stroke:#181818;stroke-width:0.5;" width="4" x="180" y="376.602"/><text fill="#000000" font-family="sans-serif" font-size="14" lengthAdjust="spacing" textLength="140" x="37" y="400.5679">junit-platform-testkit</text></g><!--entity junit4--><g id="elem_junit4"><rect fill="#F1F1F1" height="49.0679" rx="2.5" ry="2.5" style="stroke:#181818;stroke-width:0.5;" width="106" x="1214" y="601.602"/><rect fill="#F1F1F1" height="10" style="stroke:#181818;stroke-width:0.5;" width="15" x="1300" y="606.602"/><rect fill="#F1F1F1" height="2" style="stroke:#181818;stroke-width:0.5;" width="4" x="1298" y="608.602"/><rect fill="#F1F1F1" height="2" style="stroke:#181818;stroke-width:0.5;" width="4" x="1298" y="612.602"/><text fill="#000000" font-family="sans-serif" font-size="14" lengthAdjust="spacing" textLength="66" x="1229" y="636.5679">junit:junit</text></g><!--entity opentest4j--><g id="elem_opentest4j"><rect fill="#F1F1F1" height="49.0679" rx="2.5" ry="2.5" style="stroke:#181818;stroke-width:0.5;" width="111" x="667.5" y="880.602"/><rect fill="#F1F1F1" height="10" style="stroke:#181818;stroke-width:0.5;" width="15" x="758.5" y="885.602"/><rect fill="#F1F1F1" height="2" style="stroke:#181818;stroke-width:0.5;" width="4" x="756.5" y="887.602"/><rect fill="#F1F1F1" height="2" style="stroke:#181818;stroke-width:0.5;" width="4" x="756.5" y="891.602"/><text fill="#000000" font-family="sans-serif" font-size="14" lengthAdjust="spacing" textLength="71" x="682.5" y="915.5679">opentest4j</text></g><!--entity apiguardian--><g id="elem_apiguardian"><rect fill="#F1F1F1" height="49.0679" rx="2.5" ry="2.5" style="stroke:#181818;stroke-width:0.5;" width="149" x="2094.5" y="44.602"/><rect fill="#F1F1F1" height="10" style="stroke:#181818;stroke-width:0.5;" width="15" x="2223.5" y="49.602"/><rect fill="#F1F1F1" height="2" style="stroke:#181818;stroke-width:0.5;" width="4" x="2221.5" y="51.602"/><rect fill="#F1F1F1" height="2" style="stroke:#181818;stroke-width:0.5;" width="4" x="2221.5" y="55.602"/><text fill="#000000" font-family="sans-serif" font-size="14" lengthAdjust="spacing" textLength="109" x="2109.5" y="79.5679">apiguardian-api</text></g><g id="elem_GMN29"><path d="M2078.5,153.602 L2078.5,287.5441 A0,0 0 0 0 2078.5,287.5441 L2259.5,287.5441 A0,0 0 0 0 2259.5,287.5441 L2259.5,163.602 L2249.5,153.602 L2173,153.602 L2169,93.792 L2165,153.602 L2078.5,153.602 A0,0 0 0 0 2078.5,153.602 " fill="#FFFFFF" style="stroke:#181818;stroke-width:0.5;"/><path d="M2249.5,153.602 L2249.5,163.602 L2259.5,163.602 L2249.5,153.602 " fill="#FFFFFF" style="stroke:#181818;stroke-width:0.5;"/><text fill="#000000" font-family="sans-serif" font-size="13" lengthAdjust="spacing" textLength="108" x="2084.5" y="172.499">All artifacts except</text><text fill="#000000" font-family="sans-serif" font-size="13" lengthAdjust="spacing" textLength="150" x="2084.5" y="190.205">opentest4j and junit:junit</text><text fill="#000000" font-family="sans-serif" font-size="13" lengthAdjust="spacing" textLength="160" x="2084.5" y="207.911">have a dependency on this</text><text fill="#000000" font-family="sans-serif" font-size="13" lengthAdjust="spacing" textLength="141" x="2084.5" y="225.617">artifact. The edges have</text><text fill="#000000" font-family="sans-serif" font-size="13" lengthAdjust="spacing" textLength="138" x="2084.5" y="243.3231">been omitted from this</text><text fill="#000000" font-family="sans-serif" font-size="13" lengthAdjust="spacing" textLength="138" x="2084.5" y="261.0291">diagram for the sake of</text><text fill="#000000" font-family="sans-serif" font-size="13" lengthAdjust="spacing" textLength="66" x="2084.5" y="278.7351">readability.</text></g><!--link jupiter to jupiter_api--><g id="link_jupiter_jupiter_api"><path d="M1935.77,245.242 C1960.07,262.482 1989.29,288.262 2003,319.602 C2024.19,368.062 2037.28,398.322 2003,438.602 C1966.08,481.982 1811.6167,493.6342 1715.5167,496.8042 " fill="none" id="jupiter-to-jupiter_api" style="stroke:#181818;stroke-width:1.0;stroke-dasharray:7.0,7.0;"/><polygon fill="#181818" points="1709.52,497.002,1718.647,500.7031,1714.5173,496.8371,1718.3832,492.7074,1709.52,497.002" style="stroke:#181818;stroke-width:1.0;"/></g><!--link jupiter to jupiter_params--><g id="link_jupiter_jupiter_params"><path d="M1897,245.242 C1897,277.172 1897,327.722 1897,359.582 " fill="none" id="jupiter-to-jupiter_params" style="stroke:#181818;stroke-width:1.0;stroke-dasharray:7.0,7.0;"/><polygon fill="#181818" points="1897,365.582,1901,356.582,1897,360.582,1893,356.582,1897,365.582" style="stroke:#181818;stroke-width:1.0;"/></g><!--link jupiter to jupiter_engine--><g id="link_jupiter_jupiter_engine"><path d="M1836.38,230.432 C1758.53,243.222 1620.43,270.882 1511,319.602 C1484.02,331.612 1461.1454,346.8758 1441.1454,361.9158 " fill="none" id="jupiter-to-jupiter_engine" style="stroke:#181818;stroke-width:1.0;stroke-dasharray:7.0,7.0;"/><polygon fill="#181818" points="1436.35,365.522,1445.9472,363.3097,1440.3462,362.5169,1441.139,356.9159,1436.35,365.522" style="stroke:#181818;stroke-width:1.0;"/></g><!--link jupiter_api to opentest4j--><g id="link_jupiter_api_opentest4j"><path d="M1619.87,523.842 C1593.21,561.302 1536.36,634.032 1471,674.602 C1238.45,818.952 914.5088,877.3972 784.5888,896.0972 " fill="none" id="jupiter_api-to-opentest4j" style="stroke:#181818;stroke-width:1.0;stroke-dasharray:7.0,7.0;"/><polygon fill="#181818" points="778.65,896.952,788.1281,899.629,783.599,896.2396,786.9883,891.7106,778.65,896.952" style="stroke:#181818;stroke-width:1.0;"/></g><!--link jupiter_api to commons--><g id="link_jupiter_api_commons"><path d="M1605.19,523.702 C1552.98,562.332 1442.38,638.402 1336,674.602 C1218.15,714.702 1080.7938,727.7801 986.2138,732.0701 " fill="none" id="jupiter_api-to-commons" style="stroke:#181818;stroke-width:1.0;stroke-dasharray:7.0,7.0;"/><polygon fill="#181818" points="980.22,732.342,989.392,735.9301,985.2149,732.1154,989.0295,727.9383,980.22,732.342" style="stroke:#181818;stroke-width:1.0;"/></g><!--link jupiter_engine to engine--><g id="link_jupiter_engine_engine"><path d="M1353.86,414.612 C1252.59,459.402 1038.5373,554.0952 936.9873,599.0052 " fill="none" id="jupiter_engine-to-engine" style="stroke:#181818;stroke-width:1.0;stroke-dasharray:7.0,7.0;"/><polygon fill="#181818" points="931.5,601.432,941.3488,601.4501,936.0728,599.4097,938.1132,594.1336,931.5,601.432" style="stroke:#181818;stroke-width:1.0;"/></g><!--link jupiter_engine to jupiter_api--><g id="link_jupiter_engine_jupiter_api"><path d="M1457.54,414.712 C1495.6,432.502 1542.1247,454.2308 1580.1547,472.0108 " fill="none" id="jupiter_engine-to-jupiter_api" style="stroke:#181818;stroke-width:1.0;stroke-dasharray:7.0,7.0;"/><polygon fill="#181818" points="1585.59,474.552,1579.1311,467.1167,1581.0606,472.4344,1575.7429,474.3638,1585.59,474.552" style="stroke:#181818;stroke-width:1.0;"/></g><!--link jupiter_params to jupiter_api--><g id="link_jupiter_params_jupiter_api"><path d="M1846.03,414.622 C1828.66,422.452 1809.06,431.092 1791,438.602 C1761.19,450.992 1733.4026,461.811 1705.2726,472.441 " fill="none" id="jupiter_params-to-jupiter_api" style="stroke:#181818;stroke-width:1.0;stroke-dasharray:7.0,7.0;"/><polygon fill="#181818" points="1699.66,474.562,1709.4929,475.1223,1704.3372,472.7945,1706.665,467.6388,1699.66,474.562" style="stroke:#181818;stroke-width:1.0;"/></g><!--link jupiter_migration_support to jupiter_api--><g id="link_jupiter_migration_support_jupiter_api"><path d="M1647.67,414.852 C1645.19,432.582 1642.6316,450.7599 1640.1516,468.4799 " fill="none" id="jupiter_migration_support-to-jupiter_api" style="stroke:#181818;stroke-width:1.0;stroke-dasharray:7.0,7.0;"/><polygon fill="#181818" points="1639.32,474.422,1644.5288,466.0633,1640.013,469.4702,1636.606,464.9544,1639.32,474.422" style="stroke:#181818;stroke-width:1.0;"/></g><!--link jupiter_migration_support to junit4--><g id="link_jupiter_migration_support_junit4"><path d="M1612.42,414.612 C1538.91,459.402 1384.6739,553.4001 1310.9639,598.3101 " fill="none" id="jupiter_migration_support-to-junit4" style="stroke:#181818;stroke-width:1.0;stroke-dasharray:7.0,7.0;"/><polygon fill="#181818" points="1305.84,601.432,1315.607,600.1651,1310.1099,598.8304,1311.4445,593.3333,1305.84,601.432" style="stroke:#181818;stroke-width:1.0;"/></g><!--link console to launcher--><g id="link_console_launcher"><path d="M835.74,245.242 C811.14,263.002 779.65,289.392 760,319.602 C729.8,366.032 746.34,388.372 723,438.602 C717.27,450.942 712.7088,458.7835 705.5988,469.3535 " fill="none" id="console-to-launcher" style="stroke:#181818;stroke-width:1.0;stroke-dasharray:7.0,7.0;"/><polygon fill="#181818" points="702.25,474.332,710.5922,469.0968,705.0407,470.1832,703.9542,464.6317,702.25,474.332" style="stroke:#181818;stroke-width:1.0;"/></g><!--link console to reporting--><g id="link_console_reporting"><path d="M872.99,245.242 C874.32,277.172 876.4397,327.7272 877.7697,359.5872 " fill="none" id="console-to-reporting" style="stroke:#181818;stroke-width:1.0;stroke-dasharray:7.0,7.0;"/><polygon fill="#181818" points="878.02,365.582,881.6411,356.423,877.8115,360.5863,873.6481,356.7566,878.02,365.582" style="stroke:#181818;stroke-width:1.0;"/></g><!--link launcher to engine--><g id="link_launcher_engine"><path d="M721.3,523.612 C755.7,545.892 802.0438,575.9105 836.4938,598.2205 " fill="none" id="launcher-to-engine" style="stroke:#181818;stroke-width:1.0;stroke-dasharray:7.0,7.0;"/><polygon fill="#181818" points="841.53,601.482,836.15,593.2324,837.3332,598.7641,831.8015,599.9473,841.53,601.482" style="stroke:#181818;stroke-width:1.0;"/></g><!--link jfr to launcher--><g id="link_jfr_launcher"><path d="M640.65,414.852 C650.1,432.582 660.129,451.4065 669.569,469.1265 " fill="none" id="jfr-to-launcher" style="stroke:#181818;stroke-width:1.0;stroke-dasharray:7.0,7.0;"/><polygon fill="#181818" points="672.39,474.422,671.6887,464.5981,670.0391,470.0091,664.6281,468.3595,672.39,474.422" style="stroke:#181818;stroke-width:1.0;"/></g><!--link engine to opentest4j--><g id="link_engine_opentest4j"><path d="M827.71,650.672 C803.23,664.692 775.58,684.812 759,710.602 C724.72,763.922 721.1162,835.5629 721.7862,874.2929 " fill="none" id="engine-to-opentest4j" style="stroke:#181818;stroke-width:1.0;stroke-dasharray:7.0,7.0;"/><polygon fill="#181818" points="721.89,880.292,725.7337,871.2241,721.8035,875.2927,717.7349,871.3625,721.89,880.292" style="stroke:#181818;stroke-width:1.0;"/></g><!--link engine to commons--><g id="link_engine_commons"><path d="M878,650.852 C878,668.582 878,686.702 878,704.422 " fill="none" id="engine-to-commons" style="stroke:#181818;stroke-width:1.0;stroke-dasharray:7.0,7.0;"/><polygon fill="#181818" points="878,710.422,882,701.422,878,705.422,874,701.422,878,710.422" style="stroke:#181818;stroke-width:1.0;"/></g><!--link reporting to launcher--><g id="link_reporting_launcher"><path d="M835.95,414.852 C803.8,432.582 765.3036,453.8037 733.1836,471.5237 " fill="none" id="reporting-to-launcher" style="stroke:#181818;stroke-width:1.0;stroke-dasharray:7.0,7.0;"/><polygon fill="#181818" points="727.93,474.422,737.7425,473.5769,732.308,472.0067,733.8781,466.5722,727.93,474.422" style="stroke:#181818;stroke-width:1.0;"/></g><!--link runner to suite_commons--><g id="link_runner_suite_commons"><path d="M612.13,245.212 C587.53,263.762 552.03,290.002 520,311.602 C492.06,330.452 464.8367,347.3613 440.0367,362.3313 " fill="none" id="runner-to-suite_commons" style="stroke:#181818;stroke-width:1.0;stroke-dasharray:7.0,7.0;"/><polygon fill="#181818" points="434.9,365.432,444.6722,364.2055,439.1806,362.8481,440.538,357.3565,434.9,365.432" style="stroke:#181818;stroke-width:1.0;"/></g><!--link runner to junit4--><g id="link_runner_junit4"><path d="M664.51,245.192 C686.17,267.092 721.78,298.242 760,311.602 C784.65,320.222 1210.6,302.112 1230,319.602 C1310.95,392.582 1287.7186,537.3932 1274.3986,595.5932 " fill="none" id="runner-to-junit4" style="stroke:#181818;stroke-width:1.0;stroke-dasharray:7.0,7.0;"/><polygon fill="#181818" points="1273.06,601.442,1278.9671,593.5612,1274.1755,596.568,1271.1687,591.7764,1273.06,601.442" style="stroke:#181818;stroke-width:1.0;"/></g><!--link suite to suite_api--><g id="link_suite_suite_api"><path d="M291.89,93.932 C280.49,108.992 267.29,129.462 261,150.102 C242.32,211.442 224.72,383.202 257,438.602 C265.97,453.992 275.3331,462.7582 290.8231,471.5582 " fill="none" id="suite-to-suite_api" style="stroke:#181818;stroke-width:1.0;stroke-dasharray:7.0,7.0;"/><polygon fill="#181818" points="296.04,474.522,290.1905,466.5984,291.6926,472.0522,286.2388,473.5543,296.04,474.522" style="stroke:#181818;stroke-width:1.0;"/></g><!--link suite to suite_engine--><g id="link_suite_suite_engine"><path d="M324.36,93.792 C338.96,121.782 360.3442,162.7627 374.9242,190.7027 " fill="none" id="suite-to-suite_engine" style="stroke:#181818;stroke-width:1.0;stroke-dasharray:7.0,7.0;"/><polygon fill="#181818" points="377.7,196.022,377.0825,186.1925,375.3868,191.5892,369.9901,189.8935,377.7,196.022" style="stroke:#181818;stroke-width:1.0;"/></g><!--link suite_engine to suite_commons--><g id="link_suite_engine_suite_commons"><path d="M390.71,245.242 C391.66,277.172 393.1712,327.7246 394.1212,359.5846 " fill="none" id="suite_engine-to-suite_commons" style="stroke:#181818;stroke-width:1.0;stroke-dasharray:7.0,7.0;"/><polygon fill="#181818" points="394.3,365.582,398.03,356.4668,394.151,360.5842,390.0335,356.7052,394.3,365.582" style="stroke:#181818;stroke-width:1.0;"/></g><!--link suite_commons to launcher--><g id="link_suite_commons_launcher"><path d="M459,414.712 C507.21,432.502 567.3713,454.694 615.5313,472.474 " fill="none" id="suite_commons-to-launcher" style="stroke:#181818;stroke-width:1.0;stroke-dasharray:7.0,7.0;"/><polygon fill="#181818" points="621.16,474.552,614.1024,467.6825,616.4694,472.8203,611.3317,475.1874,621.16,474.552" style="stroke:#181818;stroke-width:1.0;"/></g><!--link suite_commons to suite_api--><g id="link_suite_commons_suite_api"><path d="M387.68,414.852 C382.21,432.582 376.5397,450.9689 371.0697,468.6889 " fill="none" id="suite_commons-to-suite_api" style="stroke:#181818;stroke-width:1.0;stroke-dasharray:7.0,7.0;"/><polygon fill="#181818" points="369.3,474.422,375.7767,467.0022,370.7748,469.6444,368.1326,464.6426,369.3,474.422" style="stroke:#181818;stroke-width:1.0;"/></g><!--link testkit to opentest4j--><g id="link_testkit_opentest4j"><path d="M117.6,414.862 C127.01,456.972 145,547.562 145,625.102 C145,625.102 145,625.102 145,736.102 C145,844.192 516.4725,886.7733 661.3425,899.3433 " fill="none" id="testkit-to-opentest4j" style="stroke:#181818;stroke-width:1.0;stroke-dasharray:7.0,7.0;"/><polygon fill="#181818" points="667.32,899.862,658.6995,895.099,662.3387,899.4298,658.0079,903.069,667.32,899.862" style="stroke:#181818;stroke-width:1.0;"/></g><!--link testkit to launcher--><g id="link_testkit_launcher"><path d="M175.55,414.642 C200.64,423.212 229.9,432.332 257,438.602 C317.48,452.592 472.6839,472.6376 579.0739,485.5776 " fill="none" id="testkit-to-launcher" style="stroke:#181818;stroke-width:1.0;stroke-dasharray:7.0,7.0;"/><polygon fill="#181818" points="585.03,486.302,576.5788,481.2446,580.0666,485.6983,575.6129,489.1861,585.03,486.302" style="stroke:#181818;stroke-width:1.0;"/></g><!--link vintage_engine to engine--><g id="link_vintage_engine_engine"><path d="M1099.96,414.822 C1052.62,459.672 954.8555,552.2853 907.4655,597.1853 " fill="none" id="vintage_engine-to-engine" style="stroke:#181818;stroke-width:1.0;stroke-dasharray:7.0,7.0;"/><polygon fill="#181818" points="903.11,601.312,912.3944,598.0257,906.7396,597.8731,906.8922,592.2183,903.11,601.312" style="stroke:#181818;stroke-width:1.0;"/></g><!--link vintage_engine to junit4--><g id="link_vintage_engine_junit4"><path d="M1139.4,414.822 C1166.61,459.672 1222.2079,551.2822 1249.4479,596.1822 " fill="none" id="vintage_engine-to-junit4" style="stroke:#181818;stroke-width:1.0;stroke-dasharray:7.0,7.0;"/><polygon fill="#181818" points="1252.56,601.312,1251.3116,591.5426,1249.9666,597.0372,1244.4719,595.6921,1252.56,601.312" style="stroke:#181818;stroke-width:1.0;"/></g><!--SRC=[bLKzZzim3DtrAuJh74-PEXpGfKE7JkrqE1mOcxQLs98XoVU1el-zj2p9agqSK0y6zTuZGr8qOsv2Jg1Xv7yOfwV15kR1VbVI_eGHkG5fJWQrQDbVnYQeRz0XLxghhhCKbjwJiAYzzvC3Jnvyvc2ujmlq2IQHIbxeN9AXx8J4JBb29R6hnMJY5Ig9Hz5fi499Cq-JqZPpY-IBPyiDU1NIBaZM00-cgNief5wCDGrWMwN7F5X0JxKQHyhLXVFs7PqqQa2lStPHbsHtR6XKNLj_aQqkyWFCikxzROT3KQbnQQEGdPF6KraxI-bZhcPHPMQwAYTordrDd3Ltsa_QJflsUTL_rktL9-dbwl99HoqQUnFhj7axdOU77xz9piyFsHXyTMy_eMITzoEa9fHBjFCr-6t8yrvC3UXcq8q06TG95BkLO4uabKL-KTQgaQisfVcNjpxSmF9y6mOETBqjr9R6wxt6oKOoIHLamvFwegI7L-H0wuYa3ShwWol9RIzCL8Je5V_L8yUcG-Eyek22ABaQXRNOy5PJofa_PTqjUu-kX8XbqzseDstaDK835p48-r4va19PwbzQ6RPULJrcswk4-_LJeloCi2G4yOjYwz2UV8oVFil3hAGFUQ3oF5cUtBqwZZlmlvHEwaQL-JNatEEEIC5j6x30ywGUHjidTsPRrNc_af9ZfsBqNOnrjJWm_z0ZaTJW58bsAN-FXNJJKo4youvvKaTg-pdcryMnwer8wyl_TB89EL2nq7y0]--></g></svg>