<svg xmlns="http://www.w3.org/2000/svg" xmlns:xlink="http://www.w3.org/1999/xlink" contentStyleType="text/css" height="907px" preserveAspectRatio="none" style="width:2326px;height:907px;background:#FFFFFF;" version="1.1" viewBox="0 0 2326 907" width="2326px" zoomAndPan="magnify"><defs/><g><!--cluster org.junit.jupiter--><g id="cluster_org.junit.jupiter"><path d="M1326.5,147 L1453.582,147 A3.75,3.75 0 0 1 1456.082,149.5 L1463.082,169.2969 L2062.5,169.2969 A2.5,2.5 0 0 1 2065,171.7969 L2065,503.5 A2.5,2.5 0 0 1 2062.5,506 L1326.5,506 A2.5,2.5 0 0 1 1324,503.5 L1324,149.5 A2.5,2.5 0 0 1 1326.5,147 " fill="none" style="stroke:#000000;stroke-width:1.5;"/><line style="stroke:#000000;stroke-width:1.5;" x1="1324" x2="1463.082" y1="169.2969" y2="169.2969"/><text fill="#000000" font-family="sans-serif" font-size="14" font-weight="bold" lengthAdjust="spacing" textLength="126.082" x="1328" y="161.9951">org.junit.jupiter</text></g><!--cluster org.junit.vintage--><g id="cluster_org.junit.vintage"><path d="M1038.5,303 L1172.4521,303 A3.75,3.75 0 0 1 1174.9521,305.5 L1181.9521,325.2969 L1247.5,325.2969 A2.5,2.5 0 0 1 1250,327.7969 L1250,397.5 A2.5,2.5 0 0 1 1247.5,400 L1038.5,400 A2.5,2.5 0 0 1 1036,397.5 L1036,305.5 A2.5,2.5 0 0 1 1038.5,303 " fill="none" style="stroke:#000000;stroke-width:1.5;"/><line style="stroke:#000000;stroke-width:1.5;" x1="1036" x2="1181.9521" y1="325.2969" y2="325.2969"/><text fill="#000000" font-family="sans-serif" font-size="14" font-weight="bold" lengthAdjust="spacing" textLength="132.9521" x="1040" y="317.9951">org.junit.vintage</text></g><!--cluster org.junit.platform--><g id="cluster_org.junit.platform"><path d="M8.5,6 L151.0654,6 A3.75,3.75 0 0 1 153.5654,8.5 L160.5654,28.2969 L1009.5,28.2969 A2.5,2.5 0 0 1 1012,30.7969 L1012,730.5 A2.5,2.5 0 0 1 1009.5,733 L8.5,733 A2.5,2.5 0 0 1 6,730.5 L6,8.5 A2.5,2.5 0 0 1 8.5,6 " fill="none" style="stroke:#000000;stroke-width:1.5;"/><line style="stroke:#000000;stroke-width:1.5;" x1="6" x2="160.5654" y1="28.2969" y2="28.2969"/><text fill="#000000" font-family="sans-serif" font-size="14" font-weight="bold" lengthAdjust="spacing" textLength="141.5654" x="10" y="20.9951">org.junit.platform</text></g><!--cluster JUnit 4--><g id="cluster_JUnit 4"><path d="M1220.5,530 L1274.1504,530 A3.75,3.75 0 0 1 1276.6504,532.5 L1283.6504,552.2969 L1353.5,552.2969 A2.5,2.5 0 0 1 1356,554.7969 L1356,624.5 A2.5,2.5 0 0 1 1353.5,627 L1220.5,627 A2.5,2.5 0 0 1 1218,624.5 L1218,532.5 A2.5,2.5 0 0 1 1220.5,530 " fill="none" style="stroke:#000000;stroke-width:1.5;"/><line style="stroke:#000000;stroke-width:1.5;" x1="1218" x2="1283.6504" y1="552.2969" y2="552.2969"/><text fill="#000000" font-family="sans-serif" font-size="14" font-weight="bold" lengthAdjust="spacing" textLength="52.6504" x="1222" y="544.9951">JUnit 4</text></g><!--cluster org.opentest4j--><g id="cluster_org.opentest4j"><path d="M661.5,803 L779.2168,803 A3.75,3.75 0 0 1 781.7168,805.5 L788.7168,825.2969 L804.5,825.2969 A2.5,2.5 0 0 1 807,827.7969 L807,897.5 A2.5,2.5 0 0 1 804.5,900 L661.5,900 A2.5,2.5 0 0 1 659,897.5 L659,805.5 A2.5,2.5 0 0 1 661.5,803 " fill="none" style="stroke:#000000;stroke-width:1.5;"/><line style="stroke:#000000;stroke-width:1.5;" x1="659" x2="788.7168" y1="825.2969" y2="825.2969"/><text fill="#000000" font-family="sans-serif" font-size="14" font-weight="bold" lengthAdjust="spacing" textLength="116.7168" x="663" y="817.9951">org.opentest4j</text></g><!--cluster org.apiguardian--><g id="cluster_org.apiguardian"><path d="M2091.5,6 L2219.2041,6 A3.75,3.75 0 0 1 2221.7041,8.5 L2228.7041,28.2969 L2316.5,28.2969 A2.5,2.5 0 0 1 2319,30.7969 L2319,276.5 A2.5,2.5 0 0 1 2316.5,279 L2091.5,279 A2.5,2.5 0 0 1 2089,276.5 L2089,8.5 A2.5,2.5 0 0 1 2091.5,6 " fill="none" style="stroke:#000000;stroke-width:1.5;"/><line style="stroke:#000000;stroke-width:1.5;" x1="2089" x2="2228.7041" y1="28.2969" y2="28.2969"/><text fill="#000000" font-family="sans-serif" font-size="14" font-weight="bold" lengthAdjust="spacing" textLength="126.7041" x="2093" y="20.9951">org.apiguardian</text></g><!--entity jupiter--><g id="elem_jupiter"><rect fill="#F1F1F1" height="46.2969" rx="2.5" ry="2.5" style="stroke:#181818;stroke-width:0.5;" width="121.4639" x="1861.5" y="182"/><rect fill="#F1F1F1" height="10" style="stroke:#181818;stroke-width:0.5;" width="15" x="1962.9639" y="187"/><rect fill="#F1F1F1" height="2" style="stroke:#181818;stroke-width:0.5;" width="4" x="1960.9639" y="189"/><rect fill="#F1F1F1" height="2" style="stroke:#181818;stroke-width:0.5;" width="4" x="1960.9639" y="193"/><text fill="#000000" font-family="sans-serif" font-size="14" lengthAdjust="spacing" textLength="81.4639" x="1876.5" y="214.9951">junit-jupiter</text></g><!--entity jupiter_api--><g id="elem_jupiter_api"><rect fill="#F1F1F1" height="46.2969" rx="2.5" ry="2.5" style="stroke:#181818;stroke-width:0.5;" width="147.8711" x="1584" y="444"/><rect fill="#F1F1F1" height="10" style="stroke:#181818;stroke-width:0.5;" width="15" x="1711.8711" y="449"/><rect fill="#F1F1F1" height="2" style="stroke:#181818;stroke-width:0.5;" width="4" x="1709.8711" y="451"/><rect fill="#F1F1F1" height="2" style="stroke:#181818;stroke-width:0.5;" width="4" x="1709.8711" y="455"/><text fill="#000000" font-family="sans-serif" font-size="14" lengthAdjust="spacing" textLength="107.8711" x="1599" y="476.9951">junit-jupiter-api</text></g><!--entity jupiter_engine--><g id="elem_jupiter_engine"><rect fill="#F1F1F1" height="46.2969" rx="2.5" ry="2.5" style="stroke:#181818;stroke-width:0.5;" width="174.2646" x="1340" y="338"/><rect fill="#F1F1F1" height="10" style="stroke:#181818;stroke-width:0.5;" width="15" x="1494.2646" y="343"/><rect fill="#F1F1F1" height="2" style="stroke:#181818;stroke-width:0.5;" width="4" x="1492.2646" y="345"/><rect fill="#F1F1F1" height="2" style="stroke:#181818;stroke-width:0.5;" width="4" x="1492.2646" y="349"/><text fill="#000000" font-family="sans-serif" font-size="14" lengthAdjust="spacing" textLength="134.2646" x="1355" y="370.9951">junit-jupiter-engine</text></g><!--entity jupiter_params--><g id="elem_jupiter_params"><rect fill="#F1F1F1" height="46.2969" rx="2.5" ry="2.5" style="stroke:#181818;stroke-width:0.5;" width="179.248" x="1832.5" y="338"/><rect fill="#F1F1F1" height="10" style="stroke:#181818;stroke-width:0.5;" width="15" x="1991.748" y="343"/><rect fill="#F1F1F1" height="2" style="stroke:#181818;stroke-width:0.5;" width="4" x="1989.748" y="345"/><rect fill="#F1F1F1" height="2" style="stroke:#181818;stroke-width:0.5;" width="4" x="1989.748" y="349"/><text fill="#000000" font-family="sans-serif" font-size="14" lengthAdjust="spacing" textLength="139.248" x="1847.5" y="370.9951">junit-jupiter-params</text></g><!--entity jupiter_migration_support--><g id="elem_jupiter_migration_support"><rect fill="#F1F1F1" height="46.2969" rx="2.5" ry="2.5" style="stroke:#181818;stroke-width:0.5;" width="247.833" x="1549" y="338"/><rect fill="#F1F1F1" height="10" style="stroke:#181818;stroke-width:0.5;" width="15" x="1776.833" y="343"/><rect fill="#F1F1F1" height="2" style="stroke:#181818;stroke-width:0.5;" width="4" x="1774.833" y="345"/><rect fill="#F1F1F1" height="2" style="stroke:#181818;stroke-width:0.5;" width="4" x="1774.833" y="349"/><text fill="#000000" font-family="sans-serif" font-size="14" lengthAdjust="spacing" textLength="207.833" x="1564" y="370.9951">junit-jupiter-migrationsupport</text></g><!--entity vintage_engine--><g id="elem_vintage_engine"><rect fill="#F1F1F1" height="46.2969" rx="2.5" ry="2.5" style="stroke:#181818;stroke-width:0.5;" width="181.4834" x="1052.5" y="338"/><rect fill="#F1F1F1" height="10" style="stroke:#181818;stroke-width:0.5;" width="15" x="1213.9834" y="343"/><rect fill="#F1F1F1" height="2" style="stroke:#181818;stroke-width:0.5;" width="4" x="1211.9834" y="345"/><rect fill="#F1F1F1" height="2" style="stroke:#181818;stroke-width:0.5;" width="4" x="1211.9834" y="349"/><text fill="#000000" font-family="sans-serif" font-size="14" lengthAdjust="spacing" textLength="141.4834" x="1067.5" y="370.9951">junit-vintage-engine</text></g><!--entity commons--><g id="elem_commons"><rect fill="#F1F1F1" height="46.2969" rx="2.5" ry="2.5" style="stroke:#181818;stroke-width:0.5;" width="209.1211" x="786.5" y="671"/><rect fill="#F1F1F1" height="10" style="stroke:#181818;stroke-width:0.5;" width="15" x="975.6211" y="676"/><rect fill="#F1F1F1" height="2" style="stroke:#181818;stroke-width:0.5;" width="4" x="973.6211" y="678"/><rect fill="#F1F1F1" height="2" style="stroke:#181818;stroke-width:0.5;" width="4" x="973.6211" y="682"/><text fill="#000000" font-family="sans-serif" font-size="14" lengthAdjust="spacing" textLength="169.1211" x="801.5" y="703.9951">junit-platform-commons</text></g><!--entity console--><g id="elem_console"><rect fill="#F1F1F1" height="46.2969" rx="2.5" ry="2.5" style="stroke:#181818;stroke-width:0.5;" width="194.3486" x="789" y="182"/><rect fill="#F1F1F1" height="10" style="stroke:#181818;stroke-width:0.5;" width="15" x="963.3486" y="187"/><rect fill="#F1F1F1" height="2" style="stroke:#181818;stroke-width:0.5;" width="4" x="961.3486" y="189"/><rect fill="#F1F1F1" height="2" style="stroke:#181818;stroke-width:0.5;" width="4" x="961.3486" y="193"/><text fill="#000000" font-family="sans-serif" font-size="14" lengthAdjust="spacing" textLength="154.3486" x="804" y="214.9951">junit-platform-console</text></g><!--entity engine--><g id="elem_engine"><rect fill="#F1F1F1" height="46.2969" rx="2.5" ry="2.5" style="stroke:#181818;stroke-width:0.5;" width="188.5996" x="796.5" y="565"/><rect fill="#F1F1F1" height="10" style="stroke:#181818;stroke-width:0.5;" width="15" x="965.0996" y="570"/><rect fill="#F1F1F1" height="2" style="stroke:#181818;stroke-width:0.5;" width="4" x="963.0996" y="572"/><rect fill="#F1F1F1" height="2" style="stroke:#181818;stroke-width:0.5;" width="4" x="963.0996" y="576"/><text fill="#000000" font-family="sans-serif" font-size="14" lengthAdjust="spacing" textLength="148.5996" x="811.5" y="597.9951">junit-platform-engine</text></g><!--entity jfr--><g id="elem_jfr"><rect fill="#F1F1F1" height="46.2969" rx="2.5" ry="2.5" style="stroke:#181818;stroke-width:0.5;" width="155.4248" x="562.5" y="338"/><rect fill="#F1F1F1" height="10" style="stroke:#181818;stroke-width:0.5;" width="15" x="697.9248" y="343"/><rect fill="#F1F1F1" height="2" style="stroke:#181818;stroke-width:0.5;" width="4" x="695.9248" y="345"/><rect fill="#F1F1F1" height="2" style="stroke:#181818;stroke-width:0.5;" width="4" x="695.9248" y="349"/><text fill="#000000" font-family="sans-serif" font-size="14" lengthAdjust="spacing" textLength="115.4248" x="577.5" y="370.9951">junit-platform-jfr</text></g><!--entity launcher--><g id="elem_launcher"><rect fill="#F1F1F1" height="46.2969" rx="2.5" ry="2.5" style="stroke:#181818;stroke-width:0.5;" width="202.0049" x="596" y="444"/><rect fill="#F1F1F1" height="10" style="stroke:#181818;stroke-width:0.5;" width="15" x="778.0049" y="449"/><rect fill="#F1F1F1" height="2" style="stroke:#181818;stroke-width:0.5;" width="4" x="776.0049" y="451"/><rect fill="#F1F1F1" height="2" style="stroke:#181818;stroke-width:0.5;" width="4" x="776.0049" y="455"/><text fill="#000000" font-family="sans-serif" font-size="14" lengthAdjust="spacing" textLength="162.0049" x="611" y="476.9951">junit-platform-launcher</text></g><!--entity reporting--><g id="elem_reporting"><rect fill="#F1F1F1" height="46.2969" rx="2.5" ry="2.5" style="stroke:#181818;stroke-width:0.5;" width="205.5664" x="790" y="338"/><rect fill="#F1F1F1" height="10" style="stroke:#181818;stroke-width:0.5;" width="15" x="975.5664" y="343"/><rect fill="#F1F1F1" height="2" style="stroke:#181818;stroke-width:0.5;" width="4" x="973.5664" y="345"/><rect fill="#F1F1F1" height="2" style="stroke:#181818;stroke-width:0.5;" width="4" x="973.5664" y="349"/><text fill="#000000" font-family="sans-serif" font-size="14" lengthAdjust="spacing" textLength="165.5664" x="805" y="370.9951">junit-platform-reporting</text></g><!--entity runner--><g id="elem_runner"><rect fill="#F1F1F1" height="46.2969" rx="2.5" ry="2.5" style="stroke:#181818;stroke-width:0.5;" width="187.5947" x="560" y="182"/><rect fill="#F1F1F1" height="10" style="stroke:#181818;stroke-width:0.5;" width="15" x="727.5947" y="187"/><rect fill="#F1F1F1" height="2" style="stroke:#181818;stroke-width:0.5;" width="4" x="725.5947" y="189"/><rect fill="#F1F1F1" height="2" style="stroke:#181818;stroke-width:0.5;" width="4" x="725.5947" y="193"/><text fill="#000000" font-family="sans-serif" font-size="14" lengthAdjust="spacing" textLength="147.5947" x="575" y="214.9951">junit-platform-runner</text></g><!--entity suite--><g id="elem_suite"><rect fill="#F1F1F1" height="46.2969" rx="2.5" ry="2.5" style="stroke:#181818;stroke-width:0.5;" width="175.0098" x="230.5" y="41"/><rect fill="#F1F1F1" height="10" style="stroke:#181818;stroke-width:0.5;" width="15" x="385.5098" y="46"/><rect fill="#F1F1F1" height="2" style="stroke:#181818;stroke-width:0.5;" width="4" x="383.5098" y="48"/><rect fill="#F1F1F1" height="2" style="stroke:#181818;stroke-width:0.5;" width="4" x="383.5098" y="52"/><text fill="#000000" font-family="sans-serif" font-size="14" lengthAdjust="spacing" textLength="135.0098" x="245.5" y="73.9951">junit-platform-suite</text></g><!--entity suite_api--><g id="elem_suite_api"><rect fill="#F1F1F1" height="46.2969" rx="2.5" ry="2.5" style="stroke:#181818;stroke-width:0.5;" width="201.417" x="268.5" y="444"/><rect fill="#F1F1F1" height="10" style="stroke:#181818;stroke-width:0.5;" width="15" x="449.917" y="449"/><rect fill="#F1F1F1" height="2" style="stroke:#181818;stroke-width:0.5;" width="4" x="447.917" y="451"/><rect fill="#F1F1F1" height="2" style="stroke:#181818;stroke-width:0.5;" width="4" x="447.917" y="455"/><text fill="#000000" font-family="sans-serif" font-size="14" lengthAdjust="spacing" textLength="161.417" x="283.5" y="476.9951">junit-platform-suite-api</text></g><!--entity suite_commons--><g id="elem_suite_commons"><rect fill="#F1F1F1" height="46.2969" rx="2.5" ry="2.5" style="stroke:#181818;stroke-width:0.5;" width="248.332" x="279" y="338"/><rect fill="#F1F1F1" height="10" style="stroke:#181818;stroke-width:0.5;" width="15" x="507.332" y="343"/><rect fill="#F1F1F1" height="2" style="stroke:#181818;stroke-width:0.5;" width="4" x="505.332" y="345"/><rect fill="#F1F1F1" height="2" style="stroke:#181818;stroke-width:0.5;" width="4" x="505.332" y="349"/><text fill="#000000" font-family="sans-serif" font-size="14" lengthAdjust="spacing" textLength="208.332" x="294" y="370.9951">junit-platform-suite-commons</text></g><!--entity suite_engine--><g id="elem_suite_engine"><rect fill="#F1F1F1" height="46.2969" rx="2.5" ry="2.5" style="stroke:#181818;stroke-width:0.5;" width="227.8105" x="284" y="182"/><rect fill="#F1F1F1" height="10" style="stroke:#181818;stroke-width:0.5;" width="15" x="491.8105" y="187"/><rect fill="#F1F1F1" height="2" style="stroke:#181818;stroke-width:0.5;" width="4" x="489.8105" y="189"/><rect fill="#F1F1F1" height="2" style="stroke:#181818;stroke-width:0.5;" width="4" x="489.8105" y="193"/><text fill="#000000" font-family="sans-serif" font-size="14" lengthAdjust="spacing" textLength="187.8105" x="299" y="214.9951">junit-platform-suite-engine</text></g><!--entity testkit--><g id="elem_testkit"><rect fill="#F1F1F1" height="46.2969" rx="2.5" ry="2.5" style="stroke:#181818;stroke-width:0.5;" width="185.2227" x="21.5" y="338"/><rect fill="#F1F1F1" height="10" style="stroke:#181818;stroke-width:0.5;" width="15" x="186.7227" y="343"/><rect fill="#F1F1F1" height="2" style="stroke:#181818;stroke-width:0.5;" width="4" x="184.7227" y="345"/><rect fill="#F1F1F1" height="2" style="stroke:#181818;stroke-width:0.5;" width="4" x="184.7227" y="349"/><text fill="#000000" font-family="sans-serif" font-size="14" lengthAdjust="spacing" textLength="145.2227" x="36.5" y="370.9951">junit-platform-testkit</text></g><!--entity junit4--><g id="elem_junit4"><rect fill="#F1F1F1" height="46.2969" rx="2.5" ry="2.5" style="stroke:#181818;stroke-width:0.5;" width="106.7461" x="1233.5" y="565"/><rect fill="#F1F1F1" height="10" style="stroke:#181818;stroke-width:0.5;" width="15" x="1320.2461" y="570"/><rect fill="#F1F1F1" height="2" style="stroke:#181818;stroke-width:0.5;" width="4" x="1318.2461" y="572"/><rect fill="#F1F1F1" height="2" style="stroke:#181818;stroke-width:0.5;" width="4" x="1318.2461" y="576"/><text fill="#000000" font-family="sans-serif" font-size="14" lengthAdjust="spacing" textLength="66.7461" x="1248.5" y="597.9951">junit:junit</text></g><!--entity opentest4j--><g id="elem_opentest4j"><rect fill="#F1F1F1" height="46.2969" rx="2.5" ry="2.5" style="stroke:#181818;stroke-width:0.5;" width="114.6211" x="675.5" y="838"/><rect fill="#F1F1F1" height="10" style="stroke:#181818;stroke-width:0.5;" width="15" x="770.1211" y="843"/><rect fill="#F1F1F1" height="2" style="stroke:#181818;stroke-width:0.5;" width="4" x="768.1211" y="845"/><rect fill="#F1F1F1" height="2" style="stroke:#181818;stroke-width:0.5;" width="4" x="768.1211" y="849"/><text fill="#000000" font-family="sans-serif" font-size="14" lengthAdjust="spacing" textLength="74.6211" x="690.5" y="870.9951">opentest4j</text></g><!--entity apiguardian--><g id="elem_apiguardian"><rect fill="#F1F1F1" height="46.2969" rx="2.5" ry="2.5" style="stroke:#181818;stroke-width:0.5;" width="150.0859" x="2129" y="41"/><rect fill="#F1F1F1" height="10" style="stroke:#181818;stroke-width:0.5;" width="15" x="2259.0859" y="46"/><rect fill="#F1F1F1" height="2" style="stroke:#181818;stroke-width:0.5;" width="4" x="2257.0859" y="48"/><rect fill="#F1F1F1" height="2" style="stroke:#181818;stroke-width:0.5;" width="4" x="2257.0859" y="52"/><text fill="#000000" font-family="sans-serif" font-size="14" lengthAdjust="spacing" textLength="110.0859" x="2144" y="73.9951">apiguardian-api</text></g><g id="elem_GMN29"><path d="M2105.5,147 L2105.5,262.9297 A0,0 0 0 0 2105.5,262.9297 L2302.876,262.9297 A0,0 0 0 0 2302.876,262.9297 L2302.876,157 L2292.876,147 L2208,147 L2204,87.02 L2200,147 L2105.5,147 A0,0 0 0 0 2105.5,147 " fill="#FFFFFF" style="stroke:#181818;stroke-width:0.5;"/><path d="M2292.876,147 L2292.876,157 L2302.876,157 L2292.876,147 " fill="#FFFFFF" style="stroke:#181818;stroke-width:0.5;"/><text fill="#000000" font-family="sans-serif" font-size="13" lengthAdjust="spacing" textLength="122.1479" x="2111.5" y="164.0669">All artifacts except</text><text fill="#000000" font-family="sans-serif" font-size="13" lengthAdjust="spacing" textLength="163.9917" x="2111.5" y="179.1997">opentest4j and junit:junit</text><text fill="#000000" font-family="sans-serif" font-size="13" lengthAdjust="spacing" textLength="176.376" x="2111.5" y="194.3325">have a dependency on this</text><text fill="#000000" font-family="sans-serif" font-size="13" lengthAdjust="spacing" textLength="158.6851" x="2111.5" y="209.4653">artifact. The edges have</text><text fill="#000000" font-family="sans-serif" font-size="13" lengthAdjust="spacing" textLength="149.8174" x="2111.5" y="224.5981">been omitted from this</text><text fill="#000000" font-family="sans-serif" font-size="13" lengthAdjust="spacing" textLength="152.5913" x="2111.5" y="239.731">diagram for the sake of</text><text fill="#000000" font-family="sans-serif" font-size="13" lengthAdjust="spacing" textLength="73.5376" x="2111.5" y="254.8638">readability.</text></g><!--link jupiter to jupiter_api--><g id="link_jupiter_jupiter_api"><path d="M1963.46,228.09 C1987.43,243.36 2015.46,266.12 2029,295 C2050.32,340.47 2061.65,369.84 2029,408 C1991.59,451.71 1835.4078,462.5582 1738.2878,465.1782 " fill="none" id="jupiter-to-jupiter_api" style="stroke:#181818;stroke-width:1.0;stroke-dasharray:7.0,7.0;"/><polygon fill="#181818" points="1732.29,465.34,1741.3946,469.0958,1737.2882,465.2052,1741.1789,461.0988,1732.29,465.34" style="stroke:#181818;stroke-width:1.0;"/></g><!--link jupiter to jupiter_params--><g id="link_jupiter_jupiter_params"><path d="M1922,228.06 C1922,257.34 1922,302.72 1922,331.98 " fill="none" id="jupiter-to-jupiter_params" style="stroke:#181818;stroke-width:1.0;stroke-dasharray:7.0,7.0;"/><polygon fill="#181818" points="1922,337.98,1926,328.98,1922,332.98,1918,328.98,1922,337.98" style="stroke:#181818;stroke-width:1.0;"/></g><!--link jupiter to jupiter_engine--><g id="link_jupiter_jupiter_engine"><path d="M1861.33,213.52 C1782.99,224.64 1643.48,249.26 1532,295 C1505.02,306.07 1482.004,320.2916 1461.724,334.4116 " fill="none" id="jupiter-to-jupiter_engine" style="stroke:#181818;stroke-width:1.0;stroke-dasharray:7.0,7.0;"/><polygon fill="#181818" points="1456.8,337.84,1466.4717,335.9801,1460.9034,334.983,1461.9005,329.4147,1456.8,337.84" style="stroke:#181818;stroke-width:1.0;"/></g><!--link jupiter_api to opentest4j--><g id="link_jupiter_api_opentest4j"><path d="M1641.85,490.17 C1614.68,525.89 1556.35,596.09 1491,635 C1254.21,775.97 928.6116,833.3746 796.5316,851.9446 " fill="none" id="jupiter_api-to-opentest4j" style="stroke:#181818;stroke-width:1.0;stroke-dasharray:7.0,7.0;"/><polygon fill="#181818" points="790.59,852.78,800.0593,855.488,795.5413,852.0839,798.9454,847.5659,790.59,852.78" style="stroke:#181818;stroke-width:1.0;"/></g><!--link jupiter_api to commons--><g id="link_jupiter_api_commons"><path d="M1627.65,490.01 C1575.17,526.81 1462.82,600.24 1356,635 C1236.48,673.9 1097.8441,686.7043 1001.9541,690.9543 " fill="none" id="jupiter_api-to-commons" style="stroke:#181818;stroke-width:1.0;stroke-dasharray:7.0,7.0;"/><polygon fill="#181818" points="995.96,691.22,1005.1283,694.8176,1000.9551,690.9986,1004.7741,686.8254,995.96,691.22" style="stroke:#181818;stroke-width:1.0;"/></g><!--link jupiter_engine to engine--><g id="link_jupiter_engine_engine"><path d="M1374.14,384.19 C1271.4,427.32 1051.4223,519.6576 948.9923,562.6576 " fill="none" id="jupiter_engine-to-engine" style="stroke:#181818;stroke-width:1.0;stroke-dasharray:7.0,7.0;"/><polygon fill="#181818" points="943.46,564.98,953.3067,565.1845,948.0702,563.0446,950.2101,557.8081,943.46,564.98" style="stroke:#181818;stroke-width:1.0;"/></g><!--link jupiter_engine to jupiter_api--><g id="link_jupiter_engine_jupiter_api"><path d="M1475.99,384.06 C1515.19,401.7 1564.4289,423.8768 1603.6089,441.5168 " fill="none" id="jupiter_engine-to-jupiter_api" style="stroke:#181818;stroke-width:1.0;stroke-dasharray:7.0,7.0;"/><polygon fill="#181818" points="1609.08,443.98,1602.5156,436.6378,1604.5208,441.9273,1599.2313,443.9325,1609.08,443.98" style="stroke:#181818;stroke-width:1.0;"/></g><!--link jupiter_params to jupiter_api--><g id="link_jupiter_params_jupiter_api"><path d="M1872.14,384.07 C1854.21,391.84 1833.78,400.5 1815,408 C1783.97,420.39 1754.7692,431.3108 1725.8192,441.8308 " fill="none" id="jupiter_params-to-jupiter_api" style="stroke:#181818;stroke-width:1.0;stroke-dasharray:7.0,7.0;"/><polygon fill="#181818" points="1720.18,443.88,1730.005,444.5657,1724.8793,442.1723,1727.2727,437.0467,1720.18,443.88" style="stroke:#181818;stroke-width:1.0;"/></g><!--link jupiter_migration_support to jupiter_api--><g id="link_jupiter_migration_support_jupiter_api"><path d="M1669.82,384.06 C1667.27,401.7 1664.5751,420.4012 1662.0351,438.0412 " fill="none" id="jupiter_migration_support-to-jupiter_api" style="stroke:#181818;stroke-width:1.0;stroke-dasharray:7.0,7.0;"/><polygon fill="#181818" points="1661.18,443.98,1666.4219,435.642,1661.8926,439.031,1658.5035,434.5018,1661.18,443.98" style="stroke:#181818;stroke-width:1.0;"/></g><!--link jupiter_migration_support to junit4--><g id="link_jupiter_migration_support_junit4"><path d="M1635.14,384.2 C1584.54,413.84 1492.08,467.97 1413,514 C1383.5,531.17 1355.2734,547.5253 1330.2634,561.9953 " fill="none" id="jupiter_migration_support-to-junit4" style="stroke:#181818;stroke-width:1.0;stroke-dasharray:7.0,7.0;"/><polygon fill="#181818" points="1325.07,565,1334.8633,563.9552,1329.3978,562.496,1330.857,557.0306,1325.07,565" style="stroke:#181818;stroke-width:1.0;"/></g><!--link console to launcher--><g id="link_console_launcher"><path d="M847.69,228.04 C823.24,243.86 792.57,267.24 773,295 C742.47,338.31 758.15,360.34 735,408 C728.95,420.45 724.0896,428.4899 716.7996,438.9999 " fill="none" id="console-to-launcher" style="stroke:#181818;stroke-width:1.0;stroke-dasharray:7.0,7.0;"/><polygon fill="#181818" points="713.38,443.93,721.7962,438.8146,716.2297,439.8216,715.2227,434.2551,713.38,443.93" style="stroke:#181818;stroke-width:1.0;"/></g><!--link console to reporting--><g id="link_console_reporting"><path d="M887,228.06 C888.33,257.34 890.3976,302.7262 891.7276,331.9862 " fill="none" id="console-to-reporting" style="stroke:#181818;stroke-width:1.0;stroke-dasharray:7.0,7.0;"/><polygon fill="#181818" points="892,337.98,895.5872,328.8077,891.773,332.9852,887.5955,329.1709,892,337.98" style="stroke:#181818;stroke-width:1.0;"/></g><!--link launcher to engine--><g id="link_launcher_engine"><path d="M733.04,490.1 C767.77,511.41 814.9353,540.3432 849.7153,561.6732 " fill="none" id="launcher-to-engine" style="stroke:#181818;stroke-width:1.0;stroke-dasharray:7.0,7.0;"/><polygon fill="#181818" points="854.83,564.81,849.2491,556.695,850.5677,562.196,845.0667,563.5146,854.83,564.81" style="stroke:#181818;stroke-width:1.0;"/></g><!--link jfr to launcher--><g id="link_jfr_launcher"><path d="M652.09,384.06 C661.76,401.7 672.3758,421.0787 682.0458,438.7187 " fill="none" id="jfr-to-launcher" style="stroke:#181818;stroke-width:1.0;stroke-dasharray:7.0,7.0;"/><polygon fill="#181818" points="684.93,443.98,684.1113,434.1652,682.5265,439.5956,677.0962,438.0108,684.93,443.98" style="stroke:#181818;stroke-width:1.0;"/></g><!--link engine to opentest4j--><g id="link_engine_opentest4j"><path d="M840.74,611.02 C815.37,624.69 786.37,644.7 769,671 C734.49,723.26 731.1049,794.3611 731.8249,831.8711 " fill="none" id="engine-to-opentest4j" style="stroke:#181818;stroke-width:1.0;stroke-dasharray:7.0,7.0;"/><polygon fill="#181818" points="731.94,837.87,735.7665,828.7949,731.844,832.8709,727.768,828.9484,731.94,837.87" style="stroke:#181818;stroke-width:1.0;"/></g><!--link engine to commons--><g id="link_engine_commons"><path d="M891,611.06 C891,628.7 891,647.34 891,664.98 " fill="none" id="engine-to-commons" style="stroke:#181818;stroke-width:1.0;stroke-dasharray:7.0,7.0;"/><polygon fill="#181818" points="891,670.98,895,661.98,891,665.98,887,661.98,891,670.98" style="stroke:#181818;stroke-width:1.0;"/></g><!--link reporting to launcher--><g id="link_reporting_launcher"><path d="M851.43,384.06 C818.17,401.7 777.0499,423.5274 743.8099,441.1674 " fill="none" id="reporting-to-launcher" style="stroke:#181818;stroke-width:1.0;stroke-dasharray:7.0,7.0;"/><polygon fill="#181818" points="738.51,443.98,748.335,443.2944,742.9266,441.6362,744.5848,436.2278,738.51,443.98" style="stroke:#181818;stroke-width:1.0;"/></g><!--link runner to suite_commons--><g id="link_runner_suite_commons"><path d="M621.43,228 C596.61,244.59 561.45,267.71 530,287 C501.17,304.68 473.239,320.7576 448.039,334.9376 " fill="none" id="runner-to-suite_commons" style="stroke:#181818;stroke-width:1.0;stroke-dasharray:7.0,7.0;"/><polygon fill="#181818" points="442.81,337.88,452.6151,336.9525,447.1675,335.428,448.6919,329.9805,442.81,337.88" style="stroke:#181818;stroke-width:1.0;"/></g><!--link runner to junit4--><g id="link_runner_junit4"><path d="M677.05,228.02 C699.33,247.71 735.07,275.21 772,287 C784.65,291.04 1240.11,286.14 1250,295 C1327.82,364.75 1306.227,503.5341 1293.867,558.9141 " fill="none" id="runner-to-junit4" style="stroke:#181818;stroke-width:1.0;stroke-dasharray:7.0,7.0;"/><polygon fill="#181818" points="1292.56,564.77,1298.4244,556.8574,1293.6491,559.8901,1290.6165,555.1148,1292.56,564.77" style="stroke:#181818;stroke-width:1.0;"/></g><!--link suite to suite_api--><g id="link_suite_suite_api"><path d="M297.7,87.13 C286.39,100.95 273.34,119.73 267,139 C229.64,252.59 200.83,305.26 262,408 C271.3,423.61 281.1372,432.4354 297.1272,441.0454 " fill="none" id="suite-to-suite_api" style="stroke:#181818;stroke-width:1.0;stroke-dasharray:7.0,7.0;"/><polygon fill="#181818" points="302.41,443.89,296.3822,436.1012,298.0076,441.5195,292.5894,443.145,302.41,443.89" style="stroke:#181818;stroke-width:1.0;"/></g><!--link suite to suite_engine--><g id="link_suite_suite_engine"><path d="M330.68,87.02 C345.57,112.9 367.1473,150.3897 382.1273,176.4197 " fill="none" id="suite-to-suite_engine" style="stroke:#181818;stroke-width:1.0;stroke-dasharray:7.0,7.0;"/><polygon fill="#181818" points="385.12,181.62,384.0978,171.8243,382.626,177.2864,377.164,175.8147,385.12,181.62" style="stroke:#181818;stroke-width:1.0;"/></g><!--link suite_engine to suite_commons--><g id="link_suite_engine_suite_commons"><path d="M398.72,228.06 C399.67,257.34 401.1473,302.7231 402.0873,331.9831 " fill="none" id="suite_engine-to-suite_commons" style="stroke:#181818;stroke-width:1.0;stroke-dasharray:7.0,7.0;"/><polygon fill="#181818" points="402.28,337.98,405.989,328.8562,402.1195,332.9826,397.9931,329.1131,402.28,337.98" style="stroke:#181818;stroke-width:1.0;"/></g><!--link suite_commons to launcher--><g id="link_suite_commons_launcher"><path d="M465.35,384.06 C515.24,401.7 579.2134,424.3392 629.0834,441.9792 " fill="none" id="suite_commons-to-launcher" style="stroke:#181818;stroke-width:1.0;stroke-dasharray:7.0,7.0;"/><polygon fill="#181818" points="634.74,443.98,627.5891,437.2077,630.0262,442.3126,624.9213,444.7498,634.74,443.98" style="stroke:#181818;stroke-width:1.0;"/></g><!--link suite_commons to suite_api--><g id="link_suite_commons_suite_api"><path d="M395.79,384.06 C390.02,401.7 383.8353,420.6373 378.0653,438.2773 " fill="none" id="suite_commons-to-suite_api" style="stroke:#181818;stroke-width:1.0;stroke-dasharray:7.0,7.0;"/><polygon fill="#181818" points="376.2,443.98,382.7998,436.6695,377.7544,439.2278,375.1962,434.1824,376.2,443.98" style="stroke:#181818;stroke-width:1.0;"/></g><!--link testkit to opentest4j--><g id="link_testkit_opentest4j"><path d="M119.61,384.19 C129.27,424.36 148,511.94 148,587 C148,587 148,587 148,695 C148,803.82 521.7386,843.9275 669.3286,855.5875 " fill="none" id="testkit-to-opentest4j" style="stroke:#181818;stroke-width:1.0;stroke-dasharray:7.0,7.0;"/><polygon fill="#181818" points="675.31,856.06,666.653,851.3636,670.3255,855.6662,666.0229,859.3388,675.31,856.06" style="stroke:#181818;stroke-width:1.0;"/></g><!--link testkit to launcher--><g id="link_testkit_launcher"><path d="M176.75,384.07 C202.85,392.58 233.62,401.74 262,408 C323.66,421.59 481.8705,441.2042 589.9605,453.8242 " fill="none" id="testkit-to-launcher" style="stroke:#181818;stroke-width:1.0;stroke-dasharray:7.0,7.0;"/><polygon fill="#181818" points="595.92,454.52,587.4446,449.5033,590.9537,453.9402,586.5169,457.4493,595.92,454.52" style="stroke:#181818;stroke-width:1.0;"/></g><!--link vintage_engine to engine--><g id="link_vintage_engine_engine"><path d="M1117.92,384.4 C1069.61,427.52 968.6862,517.6446 920.4562,560.6946 " fill="none" id="vintage_engine-to-engine" style="stroke:#181818;stroke-width:1.0;stroke-dasharray:7.0,7.0;"/><polygon fill="#181818" points="915.98,564.69,925.3579,561.681,919.7102,561.3605,920.0307,555.7127,915.98,564.69" style="stroke:#181818;stroke-width:1.0;"/></g><!--link vintage_engine to junit4--><g id="link_vintage_engine_junit4"><path d="M1157.33,384.4 C1184.94,427.52 1241.9358,516.5863 1269.4858,559.6363 " fill="none" id="vintage_engine-to-junit4" style="stroke:#181818;stroke-width:1.0;stroke-dasharray:7.0,7.0;"/><polygon fill="#181818" points="1272.72,564.69,1271.2379,554.9533,1270.0249,560.4786,1264.4996,559.2655,1272.72,564.69" style="stroke:#181818;stroke-width:1.0;"/></g><!--SRC=[bLKzZzim3DtrAuJh74-PEXpGfKE7JkrqE1mOcxQLs98XoVU1el-zj2p9agqSK0y6zTuZGr8qOsv2Jg1Xv7yOfwV15kR1VbVI_eGHkG5fJWQrQDbVnYQeRz0XLxghhhCKbjwJiAYzzvC3Jnvyvc2ujmlq2IQHIbxeN9AXx8J4JBb29R6hnMJY5Ig9Hz5fi499Cq-JqZPpY-IBPyiDU1NIBaZM00-cgNief5wCDGrWMwN7F5X0JxKQHyhLXVFs7PqqQa2lStPHbsHtR6XKNLj_aQqkyWFCikxzROT3KQbnQQEGdPF6KraxI-bZhcPHPMQwAYTordrDd3Ltsa_QJflsUTL_rktL9-dbwl99HoqQUnFhj7axdOU77xz9piyFsHXyTMy_eMITzoEa9fHBjFCr-6t8yrvC3UXcq8q06TG95BkLO4uabKL-KTQgaQisfVcNjpxSmF9y6mOETBqjr9R6wxt6oKOoIHLamvFwegI7L-H0wuYa3ShwWol9RIzCL8Je5V_L8yUcG-Eyek22ABaQXRNOy5PJofa_PTqjUu-kX8XbqzseDstaDK835p48-r4va19PwbzQ6RPULJrcswk4-_LJeloCi2G4yOjYwz2UV8oVFil3hAGFUQ3oF5cUtBqwZZlmlvHEwaQL-JNatEEEIC5j6x30ywGUHjidTsPRrNc_af9ZfsBqNOnrjJWm_z0ZaTJW58bsAN-FXNJJKo4youvvKaTg-pdcryMnwer8wyl_TB89EL2nq7y0]--></g></svg>